<svg xmlns="http://www.w3.org/2000/svg" viewBox="0 0 96 96" role="img" aria-label="">
  <defs>
    <linearGradient id="mascot-body" x1="0" y1="0" x2="96" y2="96" gradientUnits="userSpaceOnUse">
      <stop offset="0" stop-color="#6d9dff" />
      <stop offset="0.55" stop-color="#9163f5" />
      <stop offset="1" stop-color="#ef5da8" />
    </linearGradient>
  </defs>
        <rect x="32" y="0" width="8" height="8" fill="url(#mascot-body)"/>
        <rect x="40" y="0" width="8" height="8" fill="url(#mascot-body)"/>
        <rect x="48" y="0" width="8" height="8" fill="url(#mascot-body)"/>
        <rect x="56" y="0" width="8" height="8" fill="url(#mascot-body)"/>
        <rect x="24" y="8" width="8" height="8" fill="url(#mascot-body)"/>
        <rect x="32" y="8" width="8" height="8" fill="url(#mascot-body)"/>
        <rect x="40" y="8" width="8" height="8" fill="url(#mascot-body)"/>
        <rect x="48" y="8" width="8" height="8" fill="url(#mascot-body)"/>
        <rect x="56" y="8" width="8" height="8" fill="url(#mascot-body)"/>
        <rect x="64" y="8" width="8" height="8" fill="url(#mascot-body)"/>
        <rect x="16" y="16" width="8" height="8" fill="url(#mascot-body)"/>
        <rect x="24" y="16" width="8" height="8" fill="url(#mascot-body)"/>
        <rect x="32" y="16" width="8" height="8" fill="url(#mascot-body)"/>
        <rect x="40" y="16" width="8" height="8" fill="url(#mascot-body)"/>
        <rect x="48" y="16" width="8" height="8" fill="url(#mascot-body)"/>
        <rect x="56" y="16" width="8" height="8" fill="url(#mascot-body)"/>
        <rect x="64" y="16" width="8" height="8" fill="url(#mascot-body)"/>
        <rect x="72" y="16" width="8" height="8" fill="url(#mascot-body)"/>
        <rect x="8" y="24" width="8" height="8" fill="url(#mascot-body)"/>
        <rect x="16" y="24" width="8" height="8" fill="url(#mascot-body)"/>
        <rect x="24" y="24" width="8" height="8" fill="url(#mascot-body)"/>
        <rect x="32" y="24" width="8" height="8" fill="url(#mascot-body)"/>
        <rect x="40" y="24" width="8" height="8" fill="url(#mascot-body)"/>
        <rect x="48" y="24" width="8" height="8" fill="url(#mascot-body)"/>
        <rect x="56" y="24" width="8" height="8" fill="url(#mascot-body)"/>
        <rect x="64" y="24" width="8" height="8" fill="url(#mascot-body)"/>
        <rect x="72" y="24" width="8" height="8" fill="url(#mascot-body)"/>
        <rect x="80" y="24" width="8" height="8" fill="url(#mascot-body)"/>
        <rect x="8" y="32" width="8" height="8" fill="url(#mascot-body)"/>
        <rect x="16" y="32" width="8" height="8" fill="url(#mascot-body)"/>
        <rect x="24" y="32" width="8" height="8" fill="#141a2b"/>
        <rect x="32" y="32" width="8" height="8" fill="url(#mascot-body)"/>
        <rect x="40" y="32" width="8" height="8" fill="url(#mascot-body)"/>
        <rect x="48" y="32" width="8" height="8" fill="url(#mascot-body)"/>
        <rect x="56" y="32" width="8" height="8" fill="url(#mascot-body)"/>
        <rect x="64" y="32" width="8" height="8" fill="#141a2b"/>
        <rect x="72" y="32" width="8" height="8" fill="url(#mascot-body)"/>
        <rect x="80" y="32" width="8" height="8" fill="url(#mascot-body)"/>
        <rect x="8" y="40" width="8" height="8" fill="url(#mascot-body)"/>
        <rect x="16" y="40" width="8" height="8" fill="url(#mascot-body)"/>
        <rect x="24" y="40" width="8" height="8" fill="url(#mascot-body)"/>
        <rect x="32" y="40" width="8" height="8" fill="url(#mascot-body)"/>
        <rect x="40" y="40" width="8" height="8" fill="url(#mascot-body)"/>
        <rect x="48" y="40" width="8" height="8" fill="url(#mascot-body)"/>
        <rect x="56" y="40" width="8" height="8" fill="url(#mascot-body)"/>
        <rect x="64" y="40" width="8" height="8" fill="url(#mascot-body)"/>
        <rect x="72" y="40" width="8" height="8" fill="url(#mascot-body)"/>
        <rect x="80" y="40" width="8" height="8" fill="url(#mascot-body)"/>
        <rect x="8" y="48" width="8" height="8" fill="url(#mascot-body)"/>
        <rect x="16" y="48" width="8" height="8" fill="url(#mascot-body)"/>
        <rect x="24" y="48" width="8" height="8" fill="url(#mascot-body)"/>
        <rect x="32" y="48" width="8" height="8" fill="url(#mascot-body)"/>
        <rect x="40" y="48" width="8" height="8" fill="url(#mascot-body)"/>
        <rect x="48" y="48" width="8" height="8" fill="url(#mascot-body)"/>
        <rect x="56" y="48" width="8" height="8" fill="url(#mascot-body)"/>
        <rect x="64" y="48" width="8" height="8" fill="url(#mascot-body)"/>
        <rect x="72" y="48" width="8" height="8" fill="url(#mascot-body)"/>
        <rect x="80" y="48" width="8" height="8" fill="url(#mascot-body)"/>
        <rect x="8" y="56" width="8" height="8" fill="url(#mascot-body)"/>
        <rect x="16" y="56" width="8" height="8" fill="url(#mascot-body)"/>
        <rect x="24" y="56" width="8" height="8" fill="url(#mascot-body)"/>
        <rect x="32" y="56" width="8" height="8" fill="url(#mascot-body)"/>
        <rect x="40" y="56" width="8" height="8" fill="url(#mascot-body)"/>
        <rect x="48" y="56" width="8" height="8" fill="url(#mascot-body)"/>
        <rect x="56" y="56" width="8" height="8" fill="url(#mascot-body)"/>
        <rect x="64" y="56" width="8" height="8" fill="url(#mascot-body)"/>
        <rect x="72" y="56" width="8" height="8" fill="url(#mascot-body)"/>
        <rect x="80" y="56" width="8" height="8" fill="url(#mascot-body)"/>
        <rect x="16" y="64" width="8" height="8" fill="url(#mascot-body)"/>
        <rect x="24" y="64" width="8" height="8" fill="url(#mascot-body)"/>
        <rect x="32" y="64" width="8" height="8" fill="url(#mascot-body)"/>
        <rect x="40" y="64" width="8" height="8" fill="url(#mascot-body)"/>
        <rect x="48" y="64" width="8" height="8" fill="url(#mascot-body)"/>
        <rect x="56" y="64" width="8" height="8" fill="url(#mascot-body)"/>
        <rect x="64" y="64" width="8" height="8" fill="url(#mascot-body)"/>
        <rect x="72" y="64" width="8" height="8" fill="url(#mascot-body)"/>
        <rect x="24" y="72" width="8" height="8" fill="url(#mascot-body)"/>
        <rect x="32" y="72" width="8" height="8" fill="url(#mascot-body)"/>
        <rect x="40" y="72" width="8" height="8" fill="url(#mascot-body)"/>
        <rect x="48" y="72" width="8" height="8" fill="url(#mascot-body)"/>
        <rect x="56" y="72" width="8" height="8" fill="url(#mascot-body)"/>
        <rect x="64" y="72" width="8" height="8" fill="url(#mascot-body)"/>
        <rect x="32" y="80" width="8" height="8" fill="url(#mascot-body)"/>
        <rect x="40" y="80" width="8" height="8" fill="url(#mascot-body)"/>
        <rect x="48" y="80" width="8" height="8" fill="url(#mascot-body)"/>
        <rect x="56" y="80" width="8" height="8" fill="url(#mascot-body)"/>
        <rect x="24" y="88" width="8" height="6" fill="url(#mascot-body)"/>
        <rect x="64" y="88" width="8" height="6" fill="url(#mascot-body)"/>
</svg>
